<svg width="180" height="180" viewBox="0 0 180 180" fill="none" xmlns="http://www.w3.org/2000/svg">
<path d="M72.3471 169.317L10.6797 107.65V72.3479L72.3471 10.6805H107.649L169.316 72.3479V107.65L107.649 169.317H72.3471Z" fill="#121214" stroke="#00B37E" stroke-width="2" stroke-miterlimit="10"/>
<g filter="url(#filter0_b_1102_8683)">
<path d="M178 90L90 2L2 90L90 178L178 90Z" fill="#121214"/>
<path d="M178 90L90 2L2 90L90 178L178 90Z" stroke="#00B37E" stroke-width="2" stroke-miterlimit="10"/>
</g>
<path d="M24.9487 66.705C37.6154 66.705 47.8229 76.9842 47.8229 89.5831C47.8229 93.0985 47.0258 96.3469 45.6347 99.3283C47.4243 98.7304 49.2817 98.3996 51.2706 98.3996C59.4932 98.3996 66.3885 104.035 68.2458 111.66C68.8437 111.529 69.4416 111.529 70.1032 111.529C76.4684 111.529 81.6419 116.567 81.905 122.868C84.3602 121.609 87.0785 120.879 89.996 120.879C92.9136 120.879 95.6996 121.609 98.0871 122.868C98.3501 116.571 103.524 111.529 109.889 111.529C110.487 111.529 111.148 111.596 111.746 111.66C113.604 104.035 120.499 98.3996 128.722 98.3996C130.71 98.3996 132.568 98.7304 134.357 99.3283C132.966 96.3429 132.169 93.0945 132.169 89.5831C132.169 76.9164 142.381 66.705 155.047 66.705" stroke="#00B37E" stroke-width="2" stroke-miterlimit="10"/>
<path d="M96.2585 94.2919H83.7872L78.5339 141.248H101.456L96.2546 94.2919H96.2585Z" fill="url(#paint0_linear_1102_8683)"/>
<path d="M92.9763 94.2919H87.0694L84.5942 141.248H95.4514L92.9763 94.2919V94.2919Z" fill="url(#paint1_linear_1102_8683)"/>
<path d="M89.9969 15.5732C86.6649 15.5732 78.5339 32.4887 78.5339 39.8105V91.665H101.456V39.8105C101.456 32.5405 93.3768 15.5732 89.9929 15.5732H89.9969Z" fill="white"/>
<path d="M97.0667 32.9439C96.6124 32.5892 94.5916 31.0746 89.996 31.0746C85.4005 31.0746 83.3319 32.5892 82.9253 32.9439C82.8735 32.9957 82.8257 33.0435 82.8257 33.1472V34.4106C82.8257 34.6139 83.0768 34.7654 83.2282 34.6139C84.0374 34.0599 86.1059 32.9997 89.996 32.9997C93.8861 32.9997 95.9547 34.0599 96.7638 34.6139C96.9671 34.7136 97.1664 34.6139 97.1664 34.4106V33.1472C97.1664 33.0953 97.1664 32.9957 97.0667 32.9439Z" fill="#00B37E"/>
<path d="M78.5377 70.2587C78.5377 70.2587 64.755 81.2673 63.8941 97.0189C63.8423 97.8759 64.7032 98.5853 65.5083 98.2824C69.5459 97.0189 72.3239 91.6701 78.5337 91.6701V70.2627L78.5377 70.2587Z" fill="url(#paint2_linear_1102_8683)"/>
<path d="M101.458 70.2587C101.458 70.2587 115.241 81.2673 116.102 97.0189C116.154 97.8759 115.293 98.5853 114.488 98.2824C110.446 97.0189 107.672 91.6701 101.462 91.6701V70.2627L101.458 70.2587Z" fill="url(#paint3_linear_1102_8683)"/>
<path d="M89.9969 91.6648H78.5339L81.0091 96.9658C81.0091 96.9658 87.8247 97.6713 89.9969 97.6713C92.1692 97.6713 98.9848 96.9658 98.9848 96.9658L101.46 91.6648H89.9969Z" fill="url(#paint4_linear_1102_8683)"/>
<path d="M89.9968 70.2587C88.7333 70.2587 87.2188 83.3877 87.2188 97.5251C87.2188 99.7452 88.6337 101.969 89.9968 101.969C91.3599 101.969 92.7749 99.7492 92.7749 97.5251C92.8267 83.3877 91.2603 70.2587 89.9968 70.2587Z" fill="url(#paint5_linear_1102_8683)"/>
<path d="M100.645 135.056C100.494 134.88 100.255 134.801 99.9916 134.856L81.2148 139.894C80.9956 139.962 80.8282 140.133 80.7684 140.357C80.7126 140.576 80.7804 140.811 80.9398 140.97L83.6341 143.665L79.6524 144.737C79.4332 144.801 79.2658 144.976 79.21 145.199C79.1542 145.419 79.2219 145.654 79.3813 145.813L89.824 156.248C89.9475 156.371 90.115 156.439 90.2824 156.439C90.3342 156.439 90.39 156.431 90.4418 156.419C90.661 156.363 90.8364 156.192 90.9081 155.957L91.9643 151.995L94.6746 154.709C94.7982 154.829 94.9616 154.897 95.129 154.897C95.1808 154.897 95.2366 154.889 95.2885 154.877C95.5117 154.821 95.683 154.654 95.7548 154.418L100.781 135.653C100.841 135.446 100.789 135.219 100.645 135.056V135.056ZM90.0631 154.976L80.6528 145.574L84.507 144.538L91.0915 151.122L90.0631 154.976V154.976ZM94.9138 153.434L92.2832 150.803L94.7185 141.712C94.7902 141.485 94.7265 141.238 94.5591 141.07C94.3917 140.903 94.1485 140.839 93.9333 140.903L84.8259 143.346L82.2112 140.731L99.5612 136.076L94.9138 153.434V153.434Z" fill="#00B37E"/>
<defs>
<filter id="filter0_b_1102_8683" x="-3.41431" y="-3.41418" width="186.828" height="186.828" filterUnits="userSpaceOnUse" color-interpolation-filters="sRGB">
<feFlood flood-opacity="0" result="BackgroundImageFix"/>
<feGaussianBlur in="BackgroundImage" stdDeviation="2"/>
<feComposite in2="SourceAlpha" operator="in" result="effect1_backgroundBlur_1102_8683"/>
<feBlend mode="normal" in="SourceGraphic" in2="effect1_backgroundBlur_1102_8683" result="shape"/>
</filter>
<linearGradient id="paint0_linear_1102_8683" x1="89.9969" y1="94.2959" x2="89.9969" y2="155.848" gradientUnits="userSpaceOnUse">
<stop stop-color="#00B37E"/>
<stop offset="0.38" stop-color="#00875F" stop-opacity="0"/>
</linearGradient>
<linearGradient id="paint1_linear_1102_8683" x1="90.0228" y1="94.2959" x2="90.0228" y2="155.848" gradientUnits="userSpaceOnUse">
<stop stop-color="#00B37E"/>
<stop offset="0.46" stop-color="#00B37E" stop-opacity="0"/>
</linearGradient>
<linearGradient id="paint2_linear_1102_8683" x1="71.2159" y1="100.243" x2="71.2159" y2="72.9969" gradientUnits="userSpaceOnUse">
<stop stop-color="#015F43"/>
<stop offset="1" stop-color="#00B37E"/>
</linearGradient>
<linearGradient id="paint3_linear_1102_8683" x1="108.78" y1="100.243" x2="108.78" y2="72.9969" gradientUnits="userSpaceOnUse">
<stop stop-color="#015F43"/>
<stop offset="1" stop-color="#00B37E"/>
</linearGradient>
<linearGradient id="paint4_linear_1102_8683" x1="89.9969" y1="97.1372" x2="89.9969" y2="75.9172" gradientUnits="userSpaceOnUse">
<stop stop-color="#015F43"/>
<stop offset="1" stop-color="#00B37E"/>
</linearGradient>
<linearGradient id="paint5_linear_1102_8683" x1="90.0008" y1="97.1385" x2="90.0008" y2="75.9184" gradientUnits="userSpaceOnUse">
<stop stop-color="#015F43"/>
<stop offset="1" stop-color="#00B37E"/>
</linearGradient>
</defs>
</svg>
